<?xml version="1.0" encoding="utf-8"?>
<!-- Generator: Adobe Illustrator 25.0.0, SVG Export Plug-In . SVG Version: 6.00 Build 0)  -->
<svg version="1.1" id="Layer_1" xmlns="http://www.w3.org/2000/svg" xmlns:xlink="http://www.w3.org/1999/xlink" x="0px" y="0px"
	 viewBox="0 0 2855.7 1080" style="enable-background:new 0 0 2855.7 1080;" xml:space="preserve">
<style type="text/css">
	.st0{fill:#02F0B4;}
	.st1{fill:#FDFDFD;}
	.st2{fill:#2BBAA7;}
	.st3{fill:#001048;}
	.st4{fill:#001249;}
	.st5{fill:#011048;}
	.st6{fill:#FAFAFB;}
</style>
<g>
	<path class="st0" d="M291.8,326.1c0.3-0.3,0.6-0.7,1-1c2.1,0.1,3.8-1.1,5.5-2.1c10.2-6.4,20.9-12,32-16.5
		c37.6-15.3,76-28.6,114.1-42.5c26.7-9.8,53.4-19.7,80.2-29.3c18-6.4,35.4-14.5,53.9-19.7c5.4-1.5,10.9-2.7,16.3-4
		c17.3,1.6,34.1,5.8,50.6,11.1c88.2,28.5,153.9,84,197.3,165.9c0.9,1.6,1.5,3.3,2.2,5c-10.6,2.4-21.4,2.9-32.1,4
		c-12.5,1.2-25.1,2-37.7,3.3c-18.2,1.8-36.3,3.9-54.4,5.7c-16.2,1.6-32.4,3.3-48.4,6.1c-32.3,5.6-53.9,28.7-56.4,61.4
		c-1.5,19.5,3.4,37.7,13.9,54.1c13.1,20.5,31.5,31.6,56.3,30.4c15.1-0.7,30.2-1.9,45.2-3.2c8.9-0.8,17.9-1.4,26.8-2
		c16.9-1.1,33.8-2.5,50.6-3.8c9.8-0.7,19.5-1.5,29.3-2.3c13.7-1.1,27.4-3.3,41.2-2.6c-0.1,24.4-3.1,48.4-8.7,72.1
		c-6.1,26.2-15.3,51.2-27.6,75.1c-1,1.9-2.2,3.7-3.3,5.6c-0.3,0.5-0.6,0.9-0.9,1.4c0,0.2-0.1,0.4-0.3,0.6c-0.3,0.4-0.5,0.8-0.8,1.2
		c0,0,0,0,0,0c-2.7,0-3.9,2.4-5.5,4c-19.4,20.4-42.2,36.2-67.5,48.2c-17.4,8.3-35.4,15.4-53.2,22.8
		c-52.1,21.5-104.8,41.7-157.9,60.6c-33.8,12-67.9,22.2-104.2,22.5c-14.9-3.7-29-9.6-42.9-16.1c-40.9-18.9-76.4-45.2-106.7-78.5
		c-0.4-0.5-0.8-1.1-1.1-1.6c3.1-2.3,6.1-4.6,9.2-6.8c37.1-27.3,74.6-54.1,110.5-82.9c11-8.8,22.6-17.1,31.1-28.6
		c15.1-20.3,19.8-42.2,9.8-66.1c-6.5-15.3-16.9-27.7-29.8-38.2c-21.6-17.6-55.6-19.2-78-3.5c-30.7,21.4-60.7,43.8-90.6,66.2
		c-11.7,8.8-22.9,18.3-35.3,26.1c-5-15.8-7.9-32-9.7-48.3c-7.7-68.5,3.8-133.6,35.9-194.9c10.9-20.7,23.5-40.2,39-57.8
		C291.2,326.7,291.5,326.4,291.8,326.1z M616.1,565.1c-0.7,0-2.5,0.1-4.3,0.3c-33.4,3.9-62.9,17.9-90.6,36
		c-8.4,5.5-12.5,14.1-12.7,24.3c-0.3,14.3,5,26.4,15.3,36.1c9.4,8.8,20.6,11.2,32.9,7.7c28.7-8.3,56.4-19.2,83.4-31.8
		c9.3-4.3,15.3-11.6,17.7-21.7C664.5,588.5,645.8,565,616.1,565.1z M578.4,742.4c18.3-0.2,34.6-3.2,49.8-10.7
		c2.8-1.4,5.7-2.9,7.7-5.4c2.3-2.9,1.7-5.9-0.1-8.8c-1.7-2.7-4.3-3-7-2.1c-2.7,0.8-5.3,1.9-7.9,3c-16.7,6.9-33.8,11.1-52,8.7
		c-10.2-1.3-19.7-4.6-28.7-9.4c-3.7-2-7.2-2.6-10,1.7c-2.5,3.8-1.9,7,2.4,10.3c2.4,1.8,5,3.3,7.6,4.7
		C552.6,740.6,566.1,742,578.4,742.4z"/>
	<path class="st1" d="M2349.4,540.1c0,45.7,0,91.3,0.1,137c0,3.8-0.8,5.1-4.9,5c-18.8-0.2-37.7-0.2-56.5,0c-3.7,0-4.6-0.9-4.6-4.6
		c0.2-35.5,0-71,0.2-106.5c0-3.7-0.6-5.1-4.8-5c-34.3,0.2-68.7,0.2-103,0c-4.2,0-5.6,0.7-5.5,5.3c0.2,35.2,0,70.3,0.3,105.5
		c0,4.6-1.3,5.4-5.5,5.3c-18.5-0.2-37-0.3-55.5,0c-4.3,0.1-5.1-1.2-5.1-5.3c0.1-91.3,0.1-182.6,0-273.9c0-3.8,0.8-5,4.8-5
		c18.7,0.2,37.3,0.2,56,0c4.1-0.1,5.2,0.9,5.2,5.1c-0.2,33.3,0,66.6-0.2,100c0,3.9,0.6,5.4,5,5.3c34.5-0.2,69-0.2,103.5,0
		c4.2,0,4.8-1.4,4.8-5c-0.1-33.5,0-67-0.2-100.5c0-3.9,0.9-4.9,4.9-4.9c18.8,0.2,37.7,0.2,56.5,0c3.8,0,4.6,1.1,4.6,4.7
		C2349.4,448.4,2349.4,494.2,2349.4,540.1z"/>
	<path class="st1" d="M1541.4,542.6c-0.2-71.1,47.2-130.6,113.4-143.8c70-14,128.9,22,155.9,81.6c35.5,78.3-3.9,170.6-84.8,196.7
		c-75.4,24.3-149.2-14.3-176.2-88.8c-2.6-7.2-4.6-14.6-6-22.1C1542.2,557.3,1541.3,548.4,1541.4,542.6z M1756.9,539.2
		c-0.1-21.8-5.9-41.8-19.5-59.4c-25.4-33-82-34.4-109.1-0.6c-24.5,30.5-26.5,81.3-4.7,114.9c27.5,42.3,93.6,42.2,119.3-2.3
		C1752.4,575.4,1756.7,558,1756.9,539.2z"/>
	<path class="st1" d="M1184,684c-41.2-1-79.9-10.7-115.5-32c-3.9-2.3-4.7-4.1-2.4-8.3c8.5-16,16.5-32.3,24.5-48.5
		c1.5-3,2.3-3.2,5.2-1.3c25.9,17.1,54,28.5,85.4,30.6c8,0.5,16,0.1,23.8-2.2c8-2.3,14.4-6.5,15.7-15.5c1.3-9.5-2.9-16.3-11.1-21
		c-10.7-6.1-22.4-9.3-33.9-12.9c-18.4-5.7-37.1-10.5-54.6-18.9c-1.9-0.9-3.9-1.9-5.8-2.8c-30.5-15.4-42-37.9-38.9-74.3
		c3.3-39,31.2-68.3,74.4-77.8c34-7.5,66.5-1.7,98.1,11.3c10.5,4.3,20.6,9.3,30.6,14.6c2.9,1.5,3.7,2.7,2,5.9
		c-8.5,15.6-16.8,31.4-25,47.2c-1.6,3.1-2.5,2.7-5.2,1c-24.6-15-50.5-26.2-80.3-24.2c-4.9,0.3-9.6,1.4-14,3.3
		c-7.7,3.2-12.4,8.8-13.1,17.3c-0.8,8.7,2.7,15.1,10.1,19.7c9.8,6,20.9,8.6,31.6,11.9c19.2,6,38.9,10.4,57.2,18.9
		c4.2,2,8.5,3.9,12.5,6.2c21.6,12.3,34.2,30.4,36.1,55.7c2.1,29-4.2,54.7-27.9,73.7c-13.1,10.5-28.5,16.2-44.9,19.3
		C1207,683,1195.6,684.3,1184,684z"/>
	<path class="st1" d="M2509.1,523.1c20.1-40.6,39.8-80.6,59.4-120.6c1.7-3.5,3.5-4.7,7.5-4.7c22,0.2,44,0.1,66,0.1
		c0.3,2-1,3.3-1.8,4.7c-32,59.3-64,118.5-96.1,177.7c-1.8,3.4-2.6,6.6-2.6,10.4c0.1,28.7,0,57.3,0.1,86c0,3.9-0.6,5.4-5,5.3
		c-18.7-0.3-37.3-0.2-56,0c-3.8,0-4.7-1-4.7-4.7c0.2-29.5,0.1-59,0.1-88.5c0-3.1-0.7-5.8-2.1-8.5c-31.6-59.1-63.2-118.2-94.7-177.3
		c-0.8-1.4-1.5-2.9-2.7-5c2,0,3.4,0,4.8,0c20.8,0,41.7,0.1,62.5-0.1c3.1,0,4.6,0.9,6,3.7c18.8,38.9,37.8,77.7,56.8,116.6
		C2507.3,519.7,2508.1,521.1,2509.1,523.1z"/>
	<path class="st1" d="M1953.6,398c38.3,0,76.6,0.1,115-0.1c3.9,0,5,1,4.9,4.9c-0.2,15.7-0.3,31.3,0,47c0.1,4.7-0.9,6.2-5.9,6.1
		c-25.2-0.3-50.3,0-75.5-0.3c-4.6,0-5.4,1.4-5.4,5.6c0.1,71.8,0.1,143.6,0.2,215.4c0,4.3-0.9,5.5-5.4,5.5c-18.5-0.3-37-0.3-55.5,0
		c-4.1,0.1-5.2-1-5.2-5.2c0.1-71.6,0-143.3,0.2-214.9c0-5.4-1.6-6.4-6.6-6.3c-25,0.3-50,0-75,0.2c-4,0-5.4-0.8-5.4-5.1
		c0.3-16,0.2-32,0-48c-0.1-3.9,0.9-4.9,4.9-4.9C1877.3,398,1915.5,398,1953.6,398z"/>
	<path class="st2" d="M879.2,544.1c-13.8-0.8-27.5,1.5-41.2,2.6c-9.8,0.8-19.5,1.5-29.3,2.3c-16.9,1.3-33.7,2.7-50.6,3.8
		c-8.9,0.6-17.9,1.2-26.8,2c-15,1.3-30.1,2.5-45.2,3.2c-24.8,1.2-43.2-9.9-56.3-30.4c-10.5-16.5-15.4-34.7-13.9-54.1
		c2.6-32.6,24.1-55.8,56.4-61.4c16-2.8,32.2-4.4,48.4-6.1c18.1-1.8,36.3-3.9,54.4-5.7c12.5-1.2,25.1-2,37.7-3.3
		c10.7-1.1,21.5-1.6,32.1-4c10.3,19.3,17.5,39.8,23.2,60.9c7.6,27.7,10.9,56.1,11.4,84.8C879.6,540.4,879.3,542.2,879.2,544.1z
		 M704.6,544c35.9,0,60-15.6,70.4-40.9c5.4-13.1,6.2-26.5,2.6-40.1c-2.6-9.9-9.1-13.5-18.9-11.3c-4.3,1-8.2,2.7-12.2,4.5
		c-17.4,8-35,15.4-52.9,22.2c-10.3,3.9-20.8,7.2-30.8,11.6c-8.8,3.7-11.1,10.2-6.7,18.2C668.1,530.2,685.9,543.6,704.6,544z"/>
	<path class="st1" d="M1329.8,539.8c0-45.5,0.1-90.9-0.1-136.4c0-4.1,0.6-5.7,5.3-5.6c18.5,0.3,37,0.3,55.5,0
		c4.7-0.1,5.3,1.4,5.3,5.6c-0.1,71.8,0,143.6-0.2,215.4c0,4.3,0.9,5.5,5.4,5.5c42.3-0.2,84.6,0,126.9-0.2c4.3,0,5.6,1,5.6,5.5
		c-0.3,16-0.3,32,0,48c0.1,3.9-1.1,4.6-4.8,4.6c-64.6-0.1-129.3-0.1-193.9,0c-4.4,0-5-1.4-5-5.3
		C1329.8,631.1,1329.8,585.5,1329.8,539.8z"/>
	<path class="st2" d="M225.7,628c12.4-7.8,23.6-17.3,35.3-26.1c30-22.4,59.9-44.8,90.6-66.2c22.4-15.7,56.3-14.1,78,3.5
		c12.9,10.5,23.3,22.8,29.8,38.2c10.1,23.9,5.4,45.8-9.8,66.1c-8.6,11.5-20.1,19.7-31.1,28.6C382.5,701,345,727.7,308,755.1
		c-3.1,2.3-6.1,4.5-9.2,6.8c-15.7-16.7-28.7-35.3-40.3-55c-14-23.9-24.7-49.3-32.3-76C226,630,225.9,629,225.7,628z M443.9,604.6
		c0.1-5.6-0.2-12.2-3-18.5c-3.1-7-8.2-9.6-15.7-8.5c-5.2,0.8-9.9,2.9-14.6,5.1c-25.4,11.6-51.4,22.1-77.8,31.2
		c-3.2,1.1-6.2,2.3-9,4.3c-4.9,3.5-6.4,7.9-4.5,13.5c0.9,2.6,2.2,5.2,3.7,7.6c14.4,22.1,34.2,33.2,61.1,30.8
		C417.9,667,443.7,639.5,443.9,604.6z"/>
	<path class="st2" d="M449.5,858.1c36.3-0.3,70.4-10.5,104.2-22.5c53.2-18.9,105.8-39.1,157.9-60.6c17.8-7.4,35.8-14.5,53.2-22.8
		c25.3-12,48-27.8,67.5-48.2c1.5-1.6,2.7-3.9,5.5-4c-2.9,7.9-7.7,14.7-12.4,21.6C770.1,803.6,693.9,853.3,596,869
		c-47.7,7.6-94.9,4.1-141.3-9.1C452.9,859.4,451.3,858.7,449.5,858.1z"/>
	<path class="st2" d="M594.8,211c-5.4,1.3-10.9,2.5-16.3,4c-18.5,5.2-35.9,13.3-53.9,19.7c-26.8,9.5-53.5,19.5-80.2,29.3
		c-38.1,13.9-76.5,27.3-114.1,42.5c-11.1,4.5-21.8,10.1-32,16.5c-1.7,1.1-3.3,2.2-5.5,2.1c6.4-9,14.2-16.7,22.1-24.3
		c45.6-43.7,99.1-72.6,160.9-86.2c38.6-8.4,77.5-9.7,116.7-4.4C593.2,210.3,594,210.7,594.8,211z"/>
	<path class="st2" d="M291.8,326.1c-0.3,0.3-0.6,0.6-0.9,0.9C291.2,326.7,291.5,326.4,291.8,326.1z"/>
	<path class="st2" d="M838.8,698.2c0.3-0.5,0.6-0.9,0.9-1.4C839.4,697.3,839.1,697.8,838.8,698.2z"/>
	<path class="st2" d="M837.8,700c0.3-0.4,0.5-0.8,0.8-1.2C838.6,699.4,838.4,699.8,837.8,700z"/>
	<path class="st3" d="M616.1,565.1c29.7-0.2,48.4,23.4,41.8,50.9c-2.4,10-8.4,17.3-17.7,21.7c-27,12.6-54.7,23.6-83.4,31.8
		c-12.3,3.5-23.5,1.1-32.9-7.7c-10.3-9.7-15.6-21.8-15.3-36.1c0.2-10.1,4.3-18.8,12.7-24.3c27.7-18.1,57.2-32.1,90.6-36
		C613.6,565.2,615.4,565.2,616.1,565.1z"/>
	<path class="st4" d="M578.4,742.4c-12.2-0.4-25.8-1.8-38.2-8.1c-2.7-1.3-5.3-2.9-7.6-4.7c-4.3-3.3-4.9-6.5-2.4-10.3
		c2.7-4.3,6.2-3.7,10-1.7c9,4.8,18.6,8.1,28.7,9.4c18.2,2.4,35.4-1.7,52-8.7c2.6-1.1,5.2-2.2,7.9-3c2.7-0.9,5.4-0.5,7,2.1
		c1.8,2.9,2.4,5.8,0.1,8.8c-2,2.6-4.8,4-7.7,5.4C612.9,739.1,596.7,742.2,578.4,742.4z"/>
	<path class="st5" d="M704.6,544c-18.7-0.4-36.5-13.8-48.5-35.8c-4.4-8.1-2-14.5,6.7-18.2c10.1-4.3,20.6-7.7,30.8-11.6
		c17.9-6.8,35.6-14.2,52.9-22.2c3.9-1.8,7.9-3.5,12.2-4.5c9.8-2.2,16.3,1.4,18.9,11.3c3.5,13.6,2.7,27.1-2.6,40.1
		C764.7,528.4,740.5,544.1,704.6,544z M750,503.9c10.5,0.1,19-8.5,19-19.1c0-10.4-8.3-18.8-18.6-18.9c-10.6-0.1-19.2,8.3-19.4,18.8
		C730.9,495.1,739.6,503.8,750,503.9z"/>
	<path class="st5" d="M443.9,604.6c-0.2,35-26,62.5-59.7,65.5c-26.9,2.4-46.7-8.7-61.1-30.8c-1.5-2.3-2.8-4.9-3.7-7.6
		c-2-5.6-0.4-10,4.5-13.5c2.7-2,5.8-3.2,9-4.3c26.5-9.1,52.4-19.5,77.8-31.2c4.7-2.1,9.4-4.3,14.6-5.1c7.5-1.1,12.6,1.5,15.7,8.5
		C443.6,592.4,444,599,443.9,604.6z M433,613.8c0-10.5-8.5-18.9-19-18.9c-10.4,0.1-19,8.7-18.9,19.1c0.1,10.4,8.7,19,19.2,18.9
		C424.7,632.8,433,624.3,433,613.8z"/>
	<path class="st6" d="M750,503.9c-10.5-0.1-19.1-8.8-19-19.2c0.2-10.5,8.8-18.9,19.4-18.8c10.4,0.1,18.6,8.5,18.6,18.9
		C769.1,495.4,760.6,503.9,750,503.9z"/>
	<path class="st6" d="M433,613.8c0,10.6-8.3,19.1-18.8,19.1c-10.4,0.1-19.1-8.5-19.2-18.9c-0.1-10.4,8.5-19,18.9-19.1
		C424.5,594.8,432.9,603.2,433,613.8z"/>
</g>
</svg>
