<?xml version="1.0" encoding="utf-8"?>
<!-- Generator: Adobe Illustrator 25.0.0, SVG Export Plug-In . SVG Version: 6.00 Build 0)  -->
<svg version="1.1" id="Layer_2_1_" xmlns="http://www.w3.org/2000/svg" xmlns:xlink="http://www.w3.org/1999/xlink" x="0px" y="0px"
	 viewBox="0 0 1151.4 1080" style="enable-background:new 0 0 1151.4 1080;" xml:space="preserve">
<style type="text/css">
	.st0{clip-path:url(#SVGID_2_);}
	.st1{fill:#02F1B5;}
	.st2{fill:#2BBBA8;}
	.st3{fill:#000F48;}
	.st4{fill:#29AE9D;}
	.st5{fill:#011159;}
	.st6{fill:#FFFFFF;}
</style>
<g>
	<g>
		<defs>
			<circle id="SVGID_1_" cx="575.7" cy="540" r="503.1"/>
		</defs>
		<clipPath id="SVGID_2_">
			<use xlink:href="#SVGID_1_"  style="overflow:visible;"/>
		</clipPath>
		<g id="Layer_1_2_" class="st0">
			<ellipse class="st1" cx="734.5" cy="596" rx="26.4" ry="25.2"/>
			<g id="Layer_2_2_">
				<rect x="483.8" y="598.6" class="st1" width="306.3" height="129.4"/>
				<rect x="602.5" y="556.7" class="st1" width="113.8" height="113.8"/>
				<rect x="214.5" y="651.8" class="st2" width="94.5" height="94.5"/>
				<rect x="256.7" y="614.9" class="st2" width="94.8" height="78.7"/>
				<rect x="351.5" y="585.2" class="st2" width="73.9" height="59.3"/>
				<rect x="317.3" y="635.8" class="st2" width="108.2" height="56.2"/>
				<rect x="292.6" y="692" class="st2" width="115.6" height="15.1"/>
				<rect x="287" y="720.6" class="st2" width="89.3" height="15.1"/>
				<rect x="752.4" y="405.7" class="st2" width="186.3" height="141"/>
				<rect x="728.6" y="447.7" class="st1" width="77.1" height="66.8"/>
				<rect x="535.6" y="797.1" class="st1" width="219" height="62.9"/>
				<rect x="634.7" y="560.1" class="st1" width="67.3" height="82.8"/>
				<rect x="574.4" y="651.8" class="st2" width="131.9" height="102.5"/>
				<rect x="869.5" y="623.2" class="st1" width="195.9" height="126.2"/>
				<rect x="921.1" y="582.1" class="st1" width="197.5" height="145.9"/>
				<rect x="1012.2" y="563.3" class="st1" width="104.1" height="130.3"/>
			</g>
			<g id="Layer_3">
				<rect x="384.4" y="614.9" class="st3" width="34.4" height="41.8"/>
				<rect x="391" y="654.3" class="st3" width="25.5" height="8.2"/>
				<rect x="384.4" y="661.7" class="st3" width="23.8" height="6.6"/>
				<rect x="906.4" y="441.9" class="st3" width="14" height="22.9"/>
				<rect x="903.2" y="463.3" class="st3" width="16.3" height="2.5"/>
				<rect x="903.2" y="465.8" class="st3" width="14" height="3.2"/>
				<rect x="899.9" y="468.3" class="st3" width="11.5" height="3.2"/>
				<rect x="841" y="432.3" class="st3" width="45.9" height="50"/>
				<rect x="896.7" y="456.8" class="st3" width="21.3" height="28.7"/>
				<rect x="728.6" y="460" class="st2" width="49.1" height="58.3"/>
				<rect x="752.4" y="512.6" class="st2" width="119.7" height="36"/>
				<rect x="745.1" y="447.7" class="st2" width="45" height="16.3"/>
				<rect x="784.3" y="434.6" class="st2" width="42.7" height="14.7"/>
				<rect x="823.8" y="423.1" class="st2" width="18.1" height="14"/>
				<rect x="839.4" y="415" class="st2" width="21.3" height="16.3"/>
				<rect x="856.6" y="411.6" class="st2" width="14" height="10.6"/>
				<rect x="863.9" y="406.8" class="st2" width="19.7" height="12.4"/>
				<rect x="292.6" y="628.9" class="st2" width="32.8" height="15.6"/>
				<rect x="292.6" y="614.9" class="st2" width="34.4" height="34.4"/>
				<rect x="777.9" y="523.1" class="st2" width="11.5" height="26.2"/>
				<rect x="818" y="538.7" class="st2" width="21.3" height="21.3"/>
				<rect x="767.1" y="533.7" class="st2" width="38.5" height="4.1"/>
				<rect x="763.9" y="523.1" class="st2" width="76.2" height="33.5"/>
				<rect x="863.9" y="424.7" class="st3" width="33.5" height="25.5"/>
				<rect x="877.7" y="418.3" class="st3" width="35.3" height="31.2"/>
				<rect x="873.8" y="420.8" class="st3" width="13.1" height="10.6"/>
				<rect x="872" y="441.9" class="st3" width="41" height="25.5"/>
				<rect x="863.9" y="468.3" class="st3" width="40.2" height="20.4"/>
				<rect x="877.7" y="460" class="st3" width="25.5" height="16.3"/>
				<rect x="247.5" y="642.9" class="st2" width="32.8" height="17.2"/>
				<rect x="371.3" y="597.7" class="st2" width="9.9" height="9.9"/>
				<rect x="381.2" y="592.9" class="st2" width="9.9" height="11.5"/>
				<rect x="419.7" y="628" class="st2" width="5.7" height="40.2"/>
			</g>
			<g id="Layer_1_1_">
				<g>
					<path class="st2" d="M172.2,101.9c12.4-4.8,23.8-9,35.3-14c101.6-37.6,204.9-72.1,304.9-114c111.5-46.8,222.1-57.4,337.7-21.3
						c11.5,4.1,22,8.2,33.5,12.4c32.8,15.6,59.9,42.7,97.5,49.1c3.2,5.7,4.8,13.1,9,17.2c51.6,53.2,99.1,109.9,125.5,181
						c4.1,10.6,12.4,18.1,22,22.9c0,7.3,0,14-0.9,21.3l0,0c-4.8,4.8-4.1,10.6,0,16.3c23.8,57.4,48.4,115.6,72.1,173
						c4.1,10.6,8.2,21.3,12.4,31.9c15.6,43.4,31.2,86,46.8,129.4l-0.9-1.6l1.6,1.6c21.3,60.6,36.9,123,73,177.8
						c27.8,77.8,55.7,155.8,83.5,234.5c17.2,47.5,36,94.3,51.6,141.8c18.1,54.9,45,103.2,83.5,148.4
						c59.9,70.4,98.4,153.3,124.6,241.8c34.4,112.2,32.8,225.3,18.1,340c-7.3,24.6-15.6,49.1-22,73.7
						c-26.2,100-72.1,189.3-149.1,259.7c-9.9,11.5-18.1,23.8-28.7,34.4c-150,144.3-329.5,213.8-537.6,207.4
						c-18.1-0.9-38.5-8.2-54.1,9.9c-9.9-4.1-18.8-11.5-29.6-13.1c-108.3-15.6-204-61.5-294.2-119.7c-45-42.7-95.9-80.3-136.1-128.7
						c-88.6-108.3-139.3-236.1-190.9-363c-24.6-60.6-42.7-123.7-72.1-181.9c-25.5-81.9-57.4-162.2-90.9-240.9
						c-32.8-81.9-67.2-163.8-91.8-249.9c-12.4-29.6-24.6-58.3-36.9-87.7c-4.1-11.5-7.3-22-11.5-32.8c-31.9-84.4-64-169.6-95.9-254
						c-24.6-36.9-30.3-81.9-49.1-121.4c-12.4-71.3-24.6-142.7-9-215.5c4.8-23.8,9.9-47.5,14.7-71.3c4.1-9,8.2-17.2,12.4-26.2
						c59.9-123,155.8-204,286.1-245C135.3,119.1,153.4,110.1,172.2,101.9z M401.6,692L401.6,692c20.4-27.8,26.2-61.5,6.6-86
						c-18.8-22.9-45,7.3-67.9,12.4c-3.2,0.9-6.6,4.1-9.9,6.6l-1.6-0.9l-1.6,1.6c-15.6,1.6-29.6,6.6-41.8,15.6
						c-8.2,2.5-15.6,4.1-23.8,6.6c-38.5,14-41,24.6-14.7,56.5c30.3,35.3,73.7,42.7,121.4,18.8c3.2-2.5,6.6-4.1,9.9-6.6
						c2.5-1.6,4.8-3.2,7.3-4.8l2.5-0.9l0.9-2.5c1.6-2.5,3.2-4.8,4.8-7.3C396.8,698.4,399.1,695.2,401.6,692z M917.2,444.4
						c5.7-33.5-3.2-46.8-38.5-31.2c-39.3,17.2-80.3,32.8-121.4,46.8c-27.1,9-26.2,22-13.1,41.8c23.8,35.3,56.5,50,97.5,43.4
						s67.9-30.3,75.5-73c0.9-1.6,4.1-6.6,4.8-13.1C921.3,451.1,917.9,445.3,917.2,444.4z M902.5,2117.2c31.9,0,64-0.9,94.3-10.6
						c90.2-28.7,178.7-59.9,262.2-103.2c140.2-71.3,230.3-272.8,191.8-418c-26.2-100.7-64-196.6-112.2-289.3
						c-65.6-127.8-242.5-214.7-383.6-190.9c-108.3,18.1-210.6,58.3-308.1,107.4c-146.6,74.6-228.7,248.3-200,409.8
						c16.3,95,56.5,182.8,95.9,268.9C613.1,2042.7,739.3,2110.6,902.5,2117.2z M696.7,43.6c-37.6-1.6-73.7,4.8-109,18.1
						C481.9,101.9,374.6,138.8,268.8,179C65.5,256-33.6,464.2,39.4,654.3c15.6,40.2,22.9,41.8,57.4,15.6
						c59.9-45,120.5-89.3,181-133.5c40.2-28.7,90.9-24.6,127.8,8.2c61.5,55.7,63.1,125.5-2.5,178.7
						C336.7,777.5,267,827.5,197.3,878.2c-26.2,18.8-31.9,32.8-3.2,55.7c106.5,83.5,225.3,109.9,354,66.3
						c114-38.5,225.3-82.8,336.1-129.4c118.8-50,191.8-140.9,217.3-268c10.6-51.6,0-60.6-50.7-55.7c-85.1,8.2-171.4,12.4-256.5,20.4
						c-73,7.3-108.3-55.7-113.1-104.1c-6.6-61.5,27.8-108.3,92.7-117.9c75.5-10.6,151.6-17.2,227.8-23.8
						c45.9-4.1,52.5-13.1,32.8-55.7C967.2,125.7,854.1,50.3,696.7,43.6z"/>
					<path class="st4" d="M1580.2,188.8c85.1,90.9,126.2,200.8,140.9,322.1c0,16.3,0.9,32.8,0.9,49.1c-0.9,73-14.7,143.4-42.7,212.2
						c-22.9,36-45,73-67.9,109c-49.1,54.1-106.5,98.4-170.5,133.5c-4.8,1.6-10.6,4.1-15.6,5.7c-27.8-77.8-55.7-155.8-83.5-234.5
						c50.7-35.3,101.6-69.7,117.9-135.2c19.7-43.4,18.1-88.6,10.6-133.5c-2.5-14-4.8-27.8-7.3-41.8
						c-12.4-65.6-49.1-113.1-103.2-149.1c-67.2-44.3-143.4-63.1-223-70.4c0-7.3,0-14,0.9-21.3c41.8-21.3,62.2-56.5,64-101.6
						c2.5-56.5-31.9-92.7-74.6-123.7c9,0,18.8-1.6,27.8-0.9c143.4,12.4,275.3,55.7,389.3,146.6
						C1557.3,166.6,1568.7,178.1,1580.2,188.8z"/>
					<path class="st4" d="M41.9,1437.7c-50.7-1.6-98.4-21.3-148.4-25.5c-3.2-5.7-9-8.2-15.6-8.2c-114.7-57.4-205.8-140.2-268-253.3
						c-45.9-96.8-51.6-198.3-36-302.4c4.1-12.4,9-25.5,13.1-37.6c32.7-103.3,84.3-196,158-276.3c-4.1,61.5,9.9,114.7,67.2,149.1
						c18.8,39.3,24.6,84.4,49.1,121.4c-61.5,89.3-64,193.4-8.2,268.9c6.6,14.7,17.2,27.1,31.2,35.3c31.9,38.5,68.8,67.9,122.1,70.4
						c24.6,85.1,59,167.2,91.8,249.9C78.8,1431.9,60.7,1435.3,41.9,1437.7z"/>
					<path class="st1" d="M858.9,3262.1c-125.5,49.1-209.7,14-271.2-114.7c-7.3-14.7-12.4-30.3-18.8-45c1.6-14,2.5-27.1,4.1-41
						c5.7-93.4,77.8-159,172.1-160.6c50-0.9,87.7,26.2,129.4,43.4v0.9c1.6,2.5,2.5,4.1,4.1,6.6c6.6,9.9,12.4,18.8,18.1,28.7
						c0,2.5,0,3.2,2.5,4.1c7.3,14.7,14,28.7,21.3,43.4c36.9,75.5,22,144.3-28.7,207.4C881.1,3244,870.4,3253,858.9,3262.1z"/>
					<path class="st4" d="M2202.2,2355.6c25.5,68.8,59.9,135.2,64,211.5c-15.6-14.7-30.3-31.2-46.8-45
						c-56.5-52.5-143.4-57.4-207.4-15.6c-49.1,32.8-71.3,80.3-81.2,135.2c-2.5-3.2-4.8-5.7-7.3-9c0.9-12.4-2.5-22.9-9-33.5
						c0.9-18.8-5.7-35.3-16.3-50.7c-5.7-23.8-15.6-45-31.9-63.1c-61.5-105.8-141.8-190.9-253.3-245.9
						c-25.5-12.4-51.6-26.2-81.9-12.4c77.1-70.4,123.7-159.9,149.1-259.7c6.6-24.6,14.7-49.1,22-73.7c71.3,22,132.8,64,195,102.5
						c52.5,48.4,104.1,96.6,156.5,145c27.1,35.3,54.9,71.3,81.9,106.5c10.6,16.3,22,32.8,32.8,49.1
						C2175.9,2318.7,2190.7,2336.8,2202.2,2355.6z"/>
					<path class="st1" d="M902.5,2117.2c-163.1-6.6-289.3-74.6-359-226.2c-39.3-86-79.4-173.7-95.9-268.9
						c-28.7-161.5,53.2-335.2,200-409.8c96.6-49.1,199.1-89.3,308.1-107.4c140.9-23.8,318,64,383.6,190.9
						c47.5,92.7,85.1,188.6,112.2,289.3c38.5,145.9-52.5,346.7-192.5,418c-83.5,42.7-173,74.6-262.2,103.2
						C965.5,2116.3,934.4,2117.9,902.5,2117.2z"/>
					<path class="st1" d="M696.7,41.3c157.4,6.6,269.6,81.9,337.7,224.6c20.4,42.7,14,51.6-32.8,55.7
						c-76.2,7.3-152.4,13.1-227.8,23.8c-64.7,9-99.1,56.5-92.7,117.9c5.7,48.4,40.2,110.6,113.1,104.1
						c85.1-8.2,171.4-12.4,256.5-20.4c51.6-4.8,61.5,3.2,50.7,55.7c-25.5,127.1-98.4,218-217.3,268
						C773.5,917.5,662,961.6,548,1000.1c-128.7,43.4-247.5,17.2-354-66.3c-28.7-22.9-22.9-36.9,3.2-55.7
						c69.7-50.7,139.3-100.7,205.8-154.9c65.6-53.2,64-123,2.5-178.7c-36.9-32.8-87.7-36.9-127.8-8.2
						c-60.6,43.4-121.4,88.6-181,133.5c-35.3,26.2-41.8,24.6-57.4-15.6C-34.3,464.2,65.5,256,268.8,179
						c105.8-40.2,213.1-77.1,318.9-117.3C623.7,46.1,659,38.8,696.7,41.3z M678.6,573.1c-43.4,14-94.3,26.2-137.7,54.9
						c-25.5,16.3-27.8,45.9-14.7,73c12.4,26.2,36.9,40.2,64,32.8c42.7-12.4,85.1-28.7,125.5-47.5c26.2-12.4,35.3-38.5,27.8-65.6
						C735.9,591.2,715.5,574.8,678.6,573.1z M623.7,846.9c27.8,0,54.1-4.8,78.7-18.8c6.6-3.2,12.4-7.3,9.9-15.6
						c-3.2-11.5-12.4-8.2-19.7-4.8c-41.8,18.8-83.5,23.8-125.5,1.6c-6.6-3.2-13.1-4.1-17.2,3.2c-4.1,8.2,1.6,13.1,7.3,16.3
						C577.8,842.7,599.9,846,623.7,846.9z"/>
					<path class="st4" d="M874.5,2943.2c-42.7-17.2-80.3-44.3-129.4-43.4c-94.3,1.6-166.3,67.2-172.1,160.6c-0.9,14-2.5,27.1-4.1,41
						c-33.5-61.5-47.5-128.7-61.5-196.6c-2.5-14.7-5.7-28.7-9-43.4c-4.1-133.5,0.9-266.4,41-395.8c13.1-41.8,24.6-83.5,47.5-121.4
						c90.2,59,186.1,104.1,294.2,119.7c9.9,1.6,19.7,8.2,29.6,13.1c-20.4,53.2-43.4,106.5-49.1,163.8
						c-12.4,66.3-16.3,133.5-8.2,200.8C861.4,2876.9,868,2909.7,874.5,2943.2z"/>
					<path class="st1" d="M981,14.2c18.1-5.7,43.4-11.5,73.7-11.5c30.3-0.9,54.9,3.2,73.7,8.2c41.8,31.2,76.2,67.2,74.6,123.7
						c-0.9,33.5-15.6,58.3-21.3,67.2c-17.2,24.6-38.5,36.9-48.4,41.8c-4.1-5.7-10.6-13.1-17.2-22c-22-28.7-31.9-43.4-52.5-72.1
						c-46.8-64-59.9-77.1-73.7-113.1C985.1,26.4,982.8,19.1,981,14.2z"/>
					<path class="st1" d="M-254.8,534.6c16.3-24.6,33.5-48.4,58.3-66.3c-15.6,73-3.2,143.4,9,215.5
						C-244.9,648.6-258.9,595.2-254.8,534.6z"/>
					<path class="st4" d="M1137.6,257.7c0,4.8,0,10.6,0,16.3C1133.5,268.2,1132.6,262.5,1137.6,257.7z"/>
					<path class="st5" d="M394.3,701.8c2.5-3.2,4.8-6.6,7.3-9.9C399.1,695.2,396.8,698.4,394.3,701.8z"/>
					<path class="st5" d="M368.8,723.9c3.2-2.5,6.6-4.1,9.9-6.6C375.5,719.1,372,721.4,368.8,723.9z"/>
					<path class="st3" d="M1268.7,608.5c0,0-0.9-0.9-0.9-1.6C1267.9,605.9,1268.7,608.5,1268.7,608.5z"/>
					<path class="st4" d="M879.5,2951.5c-1.6-2.5-2.5-4.8-4.1-6.6C876.1,2946.6,877.7,2949,879.5,2951.5z"/>
					<path class="st1" d="M1930.8,2640.8c9.9-55.7,31.9-102.5,81.2-135.2c64-42.7,150-36.9,207.4,15.6c15.6,14.7,31.2,30.3,46.8,45
						c6.6,29.6,12.4,59,18.8,88.6c0,14,0.9,27.8,0.9,41.8c-4.8,54.9-28.7,100-67.9,137.7c-10.6,0.9-18.1,7.3-23.8,15.6
						c-14,5.7-27.8,10.6-41.8,16.3c-4.8,1.6-9.9,2.5-14.7,4.1c-33.5,0.9-66.3-2.5-98.4-11.5l1.6,0.9c-19.7-14-39.3-27.1-58.3-41v1.6
						c-3.2-3.2-6.6-6.6-9.9-9.9l0.9,1.6c-3.2-4.1-5.7-9-9-13.1c-26.2-43.4-31.9-92.7-35.3-141.8
						C1930.1,2651.6,1930.8,2646.6,1930.8,2640.8z"/>
					<path class="st3" d="M727,593.3c11.2,11,15.3,26.5,16.2,29.9c7.3,27.8-1.6,54.1-27.8,65.6c-41,18.8-82.8,35.3-125.5,47.5
						c-27.1,7.3-50.7-6.6-64-32.8c-9.3-19.2-10.7-39.6-1.7-55.7c5.2-9.3,12.4-14.5,16.4-17.2C568.1,612,683.1,550,727,593.3z"/>
					<path class="st1" d="M706.4,711.1"/>
					<path class="st3" d="M623.7,846c-22.9-0.9-45.9-4.1-66.3-17.2c-5.7-4.1-11.5-9-7.3-16.3c4.1-8.2,9.9-7.3,17.2-3.2
						c41.8,22,83.5,17.2,125.5-1.6c8.2-3.2,16.3-6.6,19.7,4.8c2.5,7.3-4.1,12.4-9.9,15.6C677.8,841.1,650.8,846,623.7,846z"/>
					<path class="st3" d="M419.7,655.1c-1.6,9-7.3,32.8-27.8,53.2c-3.2,3.2-22,21.3-53.2,27.1c-41,7.3-74.6-7.3-98.4-41.8
						c-13.1-18.8-14.7-32.8,12.4-41.8c41-14,81.2-30.3,120.5-48.4c18.1-8.2,27.1-8.2,34.4-4.1C424.6,610.1,420.4,647.7,419.7,655.1
						c-2.5-8.2-7.3-18.8-16.3-27.8c-6.6-5.7-13.1-13.1-23.8-13.1c-7.3,0-14.7,3.2-22,10.6c-12.4,11.5-14,26.2-1.6,40.2
						c5.7,7.3,12.4,10.6,18.8,11.5c6.6,0.9,10.6-2.5,22.9-9.9C406.5,660.8,414,657.6,419.7,655.1z"/>
					<path class="st3" d="M927,464.2c-1.6,9-7.3,32.8-27.8,53.2c-3.2,3.2-22,21.3-53.2,27.1c-41,7.3-74.6-7.3-98.4-41.8
						c-13.1-18.8-14.7-32.8,12.4-41.8c41-14,81.2-30.3,120.5-48.4c18.1-8.2,27.1-8.2,34.4-4.1C931.8,419,927.7,455.9,927,464.2
						c-0.9-2.5-1.6-5.7-3.2-9c-3.2-6.6-6.6-11.5-8.2-13.1c-0.9-0.9-2.5-3.2-4.8-5.7c-5.7-4.8-13.1-13.1-23.8-13.1
						c-7.3,0-14.7,3.2-22,10.6c-12.4,11.5-14,26.2-1.6,40.2c5.7,7.3,12.4,10.6,18.8,11.5c6.6,0.9,10.6-2.5,22.9-9.9
						C913.9,469.9,921.3,466.7,927,464.2z"/>
					<polyline class="st3" points="920.4,462.5 919.7,464.9 920.4,464.2 920.4,461.6 					"/>
					<polyline class="st3" points="922.9,465.8 924.5,453.4 927,464.2 922.9,466.7 					"/>
					<rect x="342.6" y="624.8" class="st3" width="48.4" height="55.7"/>
					<rect x="355.7" y="614.9" class="st3" width="37.6" height="24.6"/>
					<rect x="373.8" y="610.1" class="st3" width="15.6" height="15.6"/>
					<rect x="391" y="617.4" class="st3" width="23.8" height="30.3"/>
					<rect x="382.8" y="642.9" class="st3" width="20.4" height="31.2"/>
					<rect x="382.8" y="633.7" class="st3" width="33.5" height="27.8"/>
				</g>
				<g id="Layer_4">
					<circle class="st6" cx="375.5" cy="651.8" r="28.7"/>
					<circle class="st6" cx="883.5" cy="456.8" r="28.7"/>
				</g>
				<polygon class="st3" points="418.8,651.8 417.9,656.7 419.7,655.1 				"/>
				<polyline class="st3" points="917.2,438 915.5,477.2 925.4,464.2 921.3,441.9 913,439.6 915.5,479.8 				"/>
			</g>
		</g>
	</g>
</g>
</svg>
